<svg width="237" height="28" viewBox="0 0 237 28" fill="none" xmlns="http://www.w3.org/2000/svg">
<path d="M22.756 0.804V1.544C22.2873 1.64267 21.8187 1.951 21.35 2.469C20.8813 2.96233 20.3633 3.75167 19.796 4.837L12.322 19.637H11.693L3.035 3.653C2.54167 2.74033 2.12233 2.173 1.777 1.951C1.45633 1.70433 1.16033 1.581 0.889 1.581V0.804C1.38233 0.828666 1.888 0.853333 2.406 0.877999C2.94867 0.902665 3.52833 0.914998 4.145 0.914998C4.959 0.914998 5.82233 0.914998 6.735 0.914998C7.67233 0.890332 8.53567 0.853333 9.325 0.804V1.581C8.70833 1.581 8.16567 1.655 7.697 1.803C7.22833 1.951 6.92 2.22233 6.772 2.617C6.624 3.01167 6.735 3.56667 7.105 4.282L13.358 16.27L13.062 16.492L17.983 6.687C18.6737 5.33033 19.0067 4.282 18.982 3.542C18.982 2.802 18.6983 2.29633 18.131 2.025C17.5637 1.729 16.762 1.56867 15.726 1.544V0.804C16.4413 0.828666 17.169 0.853333 17.909 0.877999C18.649 0.902665 19.3397 0.914998 19.981 0.914998C20.6223 0.914998 21.1527 0.902665 21.572 0.877999C21.9913 0.853333 22.386 0.828666 22.756 0.804ZM13.987 15.752V23.078C13.987 23.966 14.061 24.632 14.209 25.076C14.357 25.52 14.6407 25.816 15.06 25.964C15.504 26.112 16.1453 26.2107 16.984 26.26V27C16.4167 26.9507 15.7013 26.926 14.838 26.926C13.9993 26.9013 13.1483 26.889 12.285 26.889C11.323 26.889 10.4227 26.9013 9.584 26.926C8.74533 26.926 8.067 26.9507 7.549 27V26.26C8.38767 26.2107 9.01667 26.112 9.436 25.964C9.88 25.816 10.176 25.52 10.324 25.076C10.472 24.632 10.546 23.966 10.546 23.078V15.493L12.544 17.787L13.987 15.752ZM35.7202 0.285998C38.0635 0.285998 40.1108 0.816332 41.8622 1.877C43.6382 2.93767 45.0072 4.467 45.9692 6.465C46.9558 8.43833 47.4492 10.8433 47.4492 13.68C47.4492 16.4427 46.9435 18.86 45.9322 20.932C44.9455 23.004 43.5642 24.6197 41.7882 25.779C40.0122 26.9383 37.9772 27.518 35.6832 27.518C33.3398 27.518 31.2802 26.9877 29.5042 25.927C27.7528 24.8663 26.3838 23.337 25.3972 21.339C24.4352 19.341 23.9542 16.936 23.9542 14.124C23.9542 11.3613 24.4598 8.944 25.4712 6.872C26.4825 4.8 27.8638 3.18433 29.6152 2.025C31.3912 0.865665 33.4262 0.285998 35.7202 0.285998ZM35.5722 0.951998C33.9688 0.951998 32.5752 1.507 31.3912 2.617C30.2072 3.727 29.2822 5.25633 28.6162 7.205C27.9748 9.15367 27.6542 11.4107 27.6542 13.976C27.6542 16.5907 28.0118 18.8723 28.7272 20.821C29.4672 22.745 30.4538 24.2373 31.6872 25.298C32.9452 26.334 34.3265 26.852 35.8312 26.852C37.4345 26.852 38.8282 26.297 40.0122 25.187C41.1962 24.077 42.1088 22.5477 42.7502 20.599C43.4162 18.6257 43.7492 16.3687 43.7492 13.828C43.7492 11.1887 43.3792 8.907 42.6392 6.983C41.9238 5.059 40.9495 3.579 39.7162 2.543C38.4828 1.48233 37.1015 0.951998 35.5722 0.951998ZM73.4362 0.804V1.544C72.5975 1.56867 71.9562 1.692 71.5122 1.914C71.0928 2.136 70.8092 2.49367 70.6612 2.987C70.5132 3.48033 70.4392 4.18333 70.4392 5.096V16.233C70.4392 17.9597 70.3282 19.4643 70.1062 20.747C69.8842 22.0297 69.4895 23.1397 68.9222 24.077C68.3055 25.113 67.4052 25.9517 66.2212 26.593C65.0372 27.2097 63.6805 27.518 62.1512 27.518C60.9672 27.518 59.8325 27.37 58.7472 27.074C57.6865 26.8027 56.7492 26.2847 55.9352 25.52C55.2198 24.8293 54.6525 24.1017 54.2332 23.337C53.8385 22.5723 53.5672 21.635 53.4192 20.525C53.2712 19.415 53.1972 18.0213 53.1972 16.344V4.726C53.1972 3.81333 53.1232 3.14733 52.9752 2.728C52.8272 2.284 52.5312 1.988 52.0872 1.84C51.6678 1.66733 51.0388 1.56867 50.2002 1.544V0.804C50.7182 0.828666 51.3965 0.853333 52.2352 0.877999C53.0738 0.902665 53.9742 0.914998 54.9362 0.914998C55.7995 0.914998 56.6505 0.902665 57.4892 0.877999C58.3525 0.853333 59.0678 0.828666 59.6352 0.804V1.544C58.7965 1.56867 58.1552 1.66733 57.7112 1.84C57.2918 1.988 57.0082 2.284 56.8602 2.728C56.7122 3.14733 56.6382 3.81333 56.6382 4.726V16.973C56.6382 18.231 56.6998 19.4273 56.8232 20.562C56.9465 21.672 57.1932 22.6587 57.5632 23.522C57.9578 24.3607 58.5498 25.0267 59.3392 25.52C60.1285 25.9887 61.1768 26.223 62.4842 26.223C64.3588 26.223 65.8018 25.816 66.8132 25.002C67.8492 24.1633 68.5645 23.0163 68.9592 21.561C69.3785 20.1057 69.5882 18.4653 69.5882 16.64V5.096C69.5882 4.18333 69.4772 3.48033 69.2552 2.987C69.0578 2.49367 68.7125 2.136 68.2192 1.914C67.7258 1.692 67.0598 1.56867 66.2212 1.544V0.804C66.6652 0.828666 67.2448 0.853333 67.9602 0.877999C68.7002 0.902665 69.3785 0.914998 69.9952 0.914998C70.6365 0.914998 71.2655 0.902665 71.8822 0.877999C72.5235 0.853333 73.0415 0.828666 73.4362 0.804ZM114.309 0.804V1.544C113.47 1.56867 112.829 1.66733 112.385 1.84C111.965 1.988 111.682 2.284 111.534 2.728C111.386 3.14733 111.312 3.81333 111.312 4.726V23.078C111.312 23.966 111.386 24.632 111.534 25.076C111.682 25.52 111.965 25.816 112.385 25.964C112.829 26.112 113.47 26.2107 114.309 26.26V27C113.741 26.9507 113.026 26.926 112.163 26.926C111.324 26.9013 110.473 26.889 109.61 26.889C108.648 26.889 107.747 26.9013 106.909 26.926C106.07 26.926 105.392 26.9507 104.874 27V26.26C105.712 26.2107 106.341 26.112 106.761 25.964C107.205 25.816 107.501 25.52 107.649 25.076C107.797 24.632 107.871 23.966 107.871 23.078V2.728L108.019 2.839L98.9537 27.185H98.3617L89.0377 3.172V22.708C89.0377 23.596 89.1117 24.299 89.2597 24.817C89.4324 25.3103 89.7531 25.668 90.2217 25.89C90.7151 26.0873 91.4427 26.2107 92.4047 26.26V27C91.9607 26.9507 91.3811 26.926 90.6657 26.926C89.9504 26.9013 89.2721 26.889 88.6307 26.889C88.0141 26.889 87.3851 26.9013 86.7437 26.926C86.1271 26.926 85.6091 26.9507 85.1897 27V26.26C86.0284 26.2107 86.6574 26.0873 87.0767 25.89C87.5207 25.668 87.8167 25.3103 87.9647 24.817C88.1127 24.299 88.1867 23.596 88.1867 22.708V4.726C88.1867 3.81333 88.1127 3.14733 87.9647 2.728C87.8167 2.284 87.5207 1.988 87.0767 1.84C86.6574 1.66733 86.0284 1.56867 85.1897 1.544V0.804C85.6091 0.828666 86.1271 0.853333 86.7437 0.877999C87.3851 0.902665 88.0141 0.914998 88.6307 0.914998C89.1734 0.914998 89.7284 0.902665 90.2957 0.877999C90.8877 0.853333 91.3811 0.828666 91.7757 0.804L100.175 22.93L99.5457 23.226L107.871 0.914998C108.167 0.914998 108.45 0.914998 108.722 0.914998C109.018 0.914998 109.314 0.914998 109.61 0.914998C110.473 0.914998 111.324 0.902665 112.163 0.877999C113.026 0.853333 113.741 0.828666 114.309 0.804ZM127.817 0.618998L136.845 23.892C137.215 24.8293 137.635 25.4583 138.103 25.779C138.572 26.075 139.004 26.2353 139.398 26.26V27C138.905 26.9507 138.301 26.926 137.585 26.926C136.87 26.9013 136.155 26.889 135.439 26.889C134.477 26.889 133.577 26.9013 132.738 26.926C131.9 26.926 131.221 26.9507 130.703 27V26.26C131.961 26.2107 132.763 26.001 133.108 25.631C133.454 25.2363 133.38 24.41 132.886 23.152L126.004 4.763L126.596 4.282L120.158 21.006C119.764 21.9927 119.529 22.8313 119.455 23.522C119.381 24.188 119.443 24.7183 119.64 25.113C119.862 25.5077 120.22 25.7913 120.713 25.964C121.231 26.1367 121.873 26.2353 122.637 26.26V27C121.947 26.9507 121.219 26.926 120.454 26.926C119.714 26.9013 119.024 26.889 118.382 26.889C117.766 26.889 117.235 26.9013 116.791 26.926C116.372 26.926 115.977 26.9507 115.607 27V26.26C116.101 26.1367 116.606 25.853 117.124 25.409C117.642 24.9403 118.111 24.151 118.53 23.041L127.225 0.618998C127.324 0.618998 127.423 0.618998 127.521 0.618998C127.62 0.618998 127.719 0.618998 127.817 0.618998ZM132.331 16.344V17.084H121.305L121.675 16.344H132.331ZM159.233 0.804C159.134 1.74133 159.06 2.654 159.011 3.542C158.986 4.40533 158.974 5.07133 158.974 5.54C158.974 6.132 158.986 6.687 159.011 7.205C159.036 7.723 159.06 8.17933 159.085 8.574H158.234C158.061 6.84733 157.827 5.49067 157.531 4.504C157.235 3.49266 156.717 2.765 155.977 2.321C155.237 1.877 154.09 1.655 152.536 1.655H150.538V22.708C150.538 23.6947 150.624 24.4347 150.797 24.928C150.994 25.4213 151.364 25.7543 151.907 25.927C152.45 26.0997 153.239 26.2107 154.275 26.26V27C153.634 26.9507 152.82 26.926 151.833 26.926C150.846 26.9013 149.847 26.889 148.836 26.889C147.726 26.889 146.678 26.9013 145.691 26.926C144.729 26.926 143.952 26.9507 143.36 27V26.26C144.396 26.2107 145.185 26.0997 145.728 25.927C146.271 25.7543 146.628 25.4213 146.801 24.928C146.998 24.4347 147.097 23.6947 147.097 22.708V1.655H145.099C143.57 1.655 142.423 1.877 141.658 2.321C140.918 2.765 140.4 3.49266 140.104 4.504C139.808 5.49067 139.574 6.84733 139.401 8.574H138.55C138.599 8.17933 138.624 7.723 138.624 7.205C138.649 6.687 138.661 6.132 138.661 5.54C138.661 5.07133 138.636 4.40533 138.587 3.542C138.562 2.654 138.501 1.74133 138.402 0.804C139.438 0.828666 140.56 0.853333 141.769 0.877999C143.002 0.902665 144.236 0.914998 145.469 0.914998C146.702 0.914998 147.825 0.914998 148.836 0.914998C149.847 0.914998 150.957 0.914998 152.166 0.914998C153.399 0.914998 154.633 0.902665 155.866 0.877999C157.099 0.853333 158.222 0.828666 159.233 0.804ZM182.214 0.804C182.115 1.74133 182.041 2.654 181.992 3.542C181.967 4.40533 181.955 5.07133 181.955 5.54C181.955 6.132 181.967 6.687 181.992 7.205C182.016 7.723 182.041 8.17933 182.066 8.574H181.215C181.042 6.84733 180.808 5.49067 180.512 4.504C180.216 3.49266 179.698 2.765 178.958 2.321C178.218 1.877 177.071 1.655 175.517 1.655H173.519V22.708C173.519 23.6947 173.605 24.4347 173.778 24.928C173.975 25.4213 174.345 25.7543 174.888 25.927C175.43 26.0997 176.22 26.2107 177.256 26.26V27C176.614 26.9507 175.8 26.926 174.814 26.926C173.827 26.9013 172.828 26.889 171.817 26.889C170.707 26.889 169.658 26.9013 168.672 26.926C167.71 26.926 166.933 26.9507 166.341 27V26.26C167.377 26.2107 168.166 26.0997 168.709 25.927C169.251 25.7543 169.609 25.4213 169.782 24.928C169.979 24.4347 170.078 23.6947 170.078 22.708V1.655H168.08C166.55 1.655 165.403 1.877 164.639 2.321C163.899 2.765 163.381 3.49266 163.085 4.504C162.789 5.49067 162.554 6.84733 162.382 8.574H161.531C161.58 8.17933 161.605 7.723 161.605 7.205C161.629 6.687 161.642 6.132 161.642 5.54C161.642 5.07133 161.617 4.40533 161.568 3.542C161.543 2.654 161.481 1.74133 161.383 0.804C162.419 0.828666 163.541 0.853333 164.75 0.877999C165.983 0.902665 167.216 0.914998 168.45 0.914998C169.683 0.914998 170.805 0.914998 171.817 0.914998C172.828 0.914998 173.938 0.914998 175.147 0.914998C176.38 0.914998 177.613 0.902665 178.847 0.877999C180.08 0.853333 181.202 0.828666 182.214 0.804ZM203.307 0.804C203.208 1.66733 203.134 2.506 203.085 3.32C203.06 4.134 203.048 4.75066 203.048 5.17C203.048 5.614 203.06 6.04567 203.085 6.465C203.11 6.85967 203.134 7.19267 203.159 7.464H202.308C202.16 6.00867 201.95 4.86167 201.679 4.023C201.408 3.15967 200.939 2.55533 200.273 2.21C199.632 1.84 198.657 1.655 197.35 1.655H194.279C193.44 1.655 192.799 1.729 192.355 1.877C191.936 2.00033 191.652 2.284 191.504 2.728C191.356 3.14733 191.282 3.81333 191.282 4.726V23.078C191.282 23.966 191.356 24.632 191.504 25.076C191.652 25.52 191.936 25.816 192.355 25.964C192.799 26.0873 193.44 26.149 194.279 26.149H196.98C198.534 26.149 199.706 25.9393 200.495 25.52C201.309 25.1007 201.889 24.4223 202.234 23.485C202.604 22.523 202.875 21.228 203.048 19.6H203.899C203.825 20.266 203.788 21.154 203.788 22.264C203.788 22.7327 203.8 23.411 203.825 24.299C203.874 25.1623 203.948 26.0627 204.047 27C202.789 26.9507 201.371 26.926 199.792 26.926C198.213 26.9013 196.807 26.889 195.574 26.889C195.031 26.889 194.328 26.889 193.465 26.889C192.626 26.889 191.714 26.9013 190.727 26.926C189.74 26.926 188.741 26.9383 187.73 26.963C186.719 26.963 185.757 26.9753 184.844 27V26.26C185.683 26.2107 186.312 26.112 186.731 25.964C187.175 25.816 187.471 25.52 187.619 25.076C187.767 24.632 187.841 23.966 187.841 23.078V4.726C187.841 3.81333 187.767 3.14733 187.619 2.728C187.471 2.284 187.175 1.988 186.731 1.84C186.312 1.66733 185.683 1.56867 184.844 1.544V0.804C185.757 0.828666 186.719 0.853333 187.73 0.877999C188.741 0.877999 189.74 0.890332 190.727 0.914998C191.714 0.914998 192.626 0.914998 193.465 0.914998C194.328 0.914998 195.031 0.914998 195.574 0.914998C196.709 0.914998 197.991 0.914998 199.422 0.914998C200.877 0.890332 202.172 0.853333 203.307 0.804ZM196.943 13.458C196.943 13.458 196.943 13.5813 196.943 13.828C196.943 14.0747 196.943 14.198 196.943 14.198H190.172C190.172 14.198 190.172 14.0747 190.172 13.828C190.172 13.5813 190.172 13.458 190.172 13.458H196.943ZM198.016 8.574C197.917 9.98 197.868 11.053 197.868 11.793C197.893 12.533 197.905 13.2113 197.905 13.828C197.905 14.4447 197.917 15.123 197.942 15.863C197.967 16.603 198.028 17.676 198.127 19.082H197.276C197.177 18.2927 197.054 17.528 196.906 16.788C196.783 16.0233 196.487 15.4067 196.018 14.938C195.574 14.4447 194.809 14.198 193.724 14.198V13.458C194.538 13.458 195.155 13.2977 195.574 12.977C196.018 12.6317 196.339 12.2 196.536 11.682C196.733 11.164 196.869 10.6337 196.943 10.091C197.017 9.52367 197.091 9.018 197.165 8.574H198.016ZM207.391 0.804C207.909 0.828666 208.587 0.853333 209.426 0.877999C210.265 0.902665 211.091 0.914998 211.905 0.914998C213.064 0.914998 214.174 0.902665 215.235 0.877999C216.296 0.853333 217.048 0.840999 217.492 0.840999C219.49 0.840999 221.143 1.12467 222.45 1.692C223.782 2.25933 224.769 3.03633 225.41 4.023C226.076 4.985 226.409 6.07033 226.409 7.279C226.409 8.019 226.261 8.80833 225.965 9.647C225.669 10.4857 225.151 11.275 224.411 12.015C223.696 12.755 222.709 13.3717 221.451 13.865C220.193 14.3337 218.602 14.568 216.678 14.568H213.126V13.828H216.308C218.059 13.828 219.391 13.5567 220.304 13.014C221.241 12.4467 221.87 11.7067 222.191 10.794C222.536 9.85667 222.709 8.82067 222.709 7.686C222.709 5.73733 222.24 4.23267 221.303 3.172C220.39 2.08667 218.812 1.544 216.567 1.544C215.432 1.544 214.692 1.75367 214.347 2.173C214.002 2.59233 213.829 3.44333 213.829 4.726V23.078C213.829 23.966 213.903 24.632 214.051 25.076C214.199 25.52 214.483 25.816 214.902 25.964C215.346 26.112 215.987 26.2107 216.826 26.26V27C216.259 26.9507 215.543 26.926 214.68 26.926C213.841 26.9013 212.99 26.889 212.127 26.889C211.165 26.889 210.265 26.9013 209.426 26.926C208.587 26.926 207.909 26.9507 207.391 27V26.26C208.23 26.2107 208.859 26.112 209.278 25.964C209.722 25.816 210.018 25.52 210.166 25.076C210.314 24.632 210.388 23.966 210.388 23.078V4.726C210.388 3.81333 210.314 3.14733 210.166 2.728C210.018 2.284 209.722 1.988 209.278 1.84C208.859 1.66733 208.23 1.56867 207.391 1.544V0.804ZM213.274 13.939C214.606 13.9883 215.654 14.05 216.419 14.124C217.184 14.1733 217.8 14.2227 218.269 14.272C218.762 14.3213 219.231 14.383 219.675 14.457C221.328 14.7283 222.512 15.234 223.227 15.974C223.967 16.6893 224.51 17.8117 224.855 19.341L225.78 23.115C226.027 24.2003 226.273 24.9897 226.52 25.483C226.791 25.9517 227.198 26.1737 227.741 26.149C228.16 26.1243 228.506 25.9887 228.777 25.742C229.073 25.4953 229.381 25.1623 229.702 24.743L230.257 25.15C229.739 25.9147 229.196 26.5067 228.629 26.926C228.086 27.3207 227.309 27.518 226.298 27.518C225.385 27.518 224.584 27.2467 223.893 26.704C223.202 26.1613 222.684 25.1007 222.339 23.522L221.525 19.822C221.303 18.7613 221.044 17.8487 220.748 17.084C220.477 16.2947 220.082 15.678 219.564 15.234C219.071 14.79 218.331 14.568 217.344 14.568H213.348L213.274 13.939ZM234.491 22.782C235.132 22.782 235.687 23.0163 236.156 23.485C236.625 23.9537 236.859 24.5087 236.859 25.15C236.859 25.7913 236.625 26.3463 236.156 26.815C235.687 27.2837 235.132 27.518 234.491 27.518C233.85 27.518 233.295 27.2837 232.826 26.815C232.357 26.3463 232.123 25.7913 232.123 25.15C232.123 24.5087 232.357 23.9537 232.826 23.485C233.295 23.0163 233.85 22.782 234.491 22.782Z" fill="black"/>
</svg>
